Coordinates
version=1
nRows=15
nColumns=27
inDegrees=yes

Units are S.I. units (second, meters, Newtons, ...)
Angles are in degrees.

endheader
time	pelvis_rotation	pelvis_list	pelvis_tilt	pelvis_tx	pelvis_ty	pelvis_tz	hip_flexion_r	hip_adduction_r	hip_rotation_r	knee_angle_r	knee_adduction_r	knee_rotation_r	ankle_angle_r	ankle_rot_r	subtalar_angle_r	mtp_angle_r	hip_flexion_l	hip_adduction_l	hip_rotation_l	knee_angle_l	knee_adduction_l	knee_rotation_l	ankle_angle_l	ankle_rot_l	subtalar_angle_l	mtp_angle_l
      0.33000000	     -3.79867370	     -3.67544189	    -14.97061421	      1.08509777	      0.64737033	     -0.39360836	     18.05238272	      7.56484155	      1.06484714	    -19.89161930	     -7.10062040	     24.34852531	    -24.77720810	      0.24668335	      0.00000058	      0.00000000	     34.21756435	     -2.73246210	     -6.20542282	    -40.13683046	     -7.81414886	     10.95698085	    -31.74503763	     10.91141492	      0.00000961	      0.00000000
      0.34000000	     -3.75161306	     -3.85305291	    -14.90933379	      1.09073858	      0.64677814	     -0.39374285	     17.42208179	      7.67263372	      1.12287489	    -19.90890743	     -7.01951892	     24.31158532	    -24.64972171	      0.18823971	     -0.00000343	      0.00000000	     35.67509876	     -3.08832464	     -6.53882477	    -39.85713076	     -7.82527615	     10.58020502	    -31.01813343	     10.54691745	      0.00000841	      0.00000000
      0.35000000	     -3.73123524	     -4.02366056	    -14.86114846	      1.09652967	      0.64610050	     -0.39387244	     16.81297274	      7.76543036	      1.20980631	    -19.95963425	     -6.90920453	     24.25977864	    -24.56654564	      0.10502725	     -0.00000295	      0.00000000	     37.02660390	     -3.42199126	     -6.77907638	    -39.36529738	     -7.80948049	     10.21531892	    -30.34363474	     10.13438034	      0.00000665	      0.00000000
      0.36000000	     -3.76950986	     -4.21104150	    -14.77882080	      1.10252287	      0.64541108	     -0.39396389	     16.16968026	      7.88754601	      1.28179592	    -20.02619546	     -6.82922670	     24.22871758	    -24.52878105	      0.04658183	     -0.00000304	      0.00000000	     38.17447942	     -3.76529389	     -6.96525007	    -38.59086891	     -7.78162110	      9.82787592	    -29.77821560	      9.74756797	      0.00000633	      0.00000000
      0.37000000	     -3.81815280	     -4.37666619	    -14.67877455	      1.10876016	      0.64470458	     -0.39406705	     15.50017624	      8.01178518	      1.24416181	    -20.09506708	     -6.83907343	     24.22564297	    -24.51352722	      0.03848300	     -0.00000156	      0.00000000	     39.13494105	     -4.03383600	     -7.15260705	    -37.52680795	     -7.83489664	      9.50785105	    -29.45609805	      9.46757364	      0.00000763	      0.00000000
      0.38000000	     -4.00412972	     -4.62238741	    -14.57198992	      1.11514905	      0.64394081	     -0.39410072	     14.83974113	      8.20603765	      1.51407294	    -20.22125712	     -6.75450013	     24.19310902	    -24.60744071	     -0.08084719	     -0.00000195	      0.00000000	     39.93826215	     -4.42797284	     -7.20716588	    -36.31575240	     -7.77340831	      9.28004875	    -28.89967038	      9.17894590	      0.00000731	      0.00000000
      0.39000000	     -4.20778138	     -4.84344733	    -14.47371487	      1.12185312	      0.64311646	     -0.39418764	     14.17160563	      8.37146610	      1.63176818	    -20.32710234	     -6.75426365	     24.23253744	    -24.69104511	     -0.08423191	     -0.00000213	      0.00000000	     40.60105010	     -4.75287240	     -7.35671177	    -34.88759844	     -7.81873247	      9.18150358	    -28.69532946	      8.98801209	      0.00001095	      0.00000000
      0.40000000	     -4.49261431	     -5.06877218	    -14.25520142	      1.12877881	      0.64234148	     -0.39429632	     13.37959486	      8.52945593	      1.94938193	    -20.47929325	     -6.71279834	     24.24201036	    -24.88997395	     -0.16759163	     -0.00000203	      0.00000000	     40.94409508	     -5.04292267	     -7.51853689	    -33.24125830	     -7.94326793	      9.34079258	    -28.63326097	      8.87758481	      0.00001093	      0.00000000
      0.41000000	     -4.80492464	     -5.29457353	    -14.01393974	      1.13603675	      0.64148673	     -0.39448295	     12.54485149	      8.67630080	      2.25962113	    -20.62631910	     -6.70429001	     24.22696994	    -25.07668152	     -0.23750621	     -0.00000419	      0.00000000	     41.10831317	     -5.28380140	     -7.72385537	    -31.46658414	     -8.16328707	      9.74014608	    -28.70500572	      8.86627430	      0.00001144	      0.00000000
      0.42000000	     -5.19490351	     -5.52800552	    -13.75485228	      1.14359612	      0.64052355	     -0.39471658	     11.73578158	      8.79192545	      2.56505901	    -20.86738580	     -6.69049006	     24.28320632	    -25.30539204	     -0.23242444	     -0.00000253	      0.00000000	     41.08209302	     -5.51125414	     -7.87652837	    -29.59876463	     -8.40044223	     10.34134300	    -28.90029513	      8.93023141	      0.00001355	      0.00000000
      0.43000000	     -5.64142385	     -5.74952932	    -13.43041433	      1.15148493	      0.63946966	     -0.39503701	     10.88028915	      8.85950836	      2.88478013	    -21.16991209	     -6.67551265	     24.33923432	    -25.56509984	     -0.20214797	     -0.00000131	      0.00000000	     40.82072910	     -5.67667823	     -7.99955985	    -27.69314827	     -8.71994586	     11.16433115	    -29.17656389	      9.06732083	      0.00001497	      0.00000000
      0.44000000	     -6.15339372	     -5.95491115	    -13.01353635	      1.15975899	      0.63832847	     -0.39542353	      9.92755400	      8.87585719	      3.25105447	    -21.50033402	     -6.66189173	     24.31703447	    -25.82289515	     -0.13077976	     -0.00000097	      0.00000000	     40.31734949	     -5.79531110	     -8.16690555	    -25.87479899	     -9.15834974	     12.30971466	    -29.29357315	      9.28526617	      0.00001547	      0.00000000
      0.45000000	     -6.77085079	     -6.11668610	    -12.66718913	      1.16830930	      0.63694887	     -0.39585943	      9.18638884	      8.77680847	      3.52120421	    -22.04481369	     -6.64206351	     24.44351383	    -26.21839318	      0.07377013	     -0.00000049	      0.00000000	     39.73143319	     -5.85563478	     -8.06498955	    -24.17860464	     -9.55918388	     13.38951054	    -29.61443101	      9.47133410	      0.00001770	      0.00000000
      0.46000000	     -7.41338136	     -6.23747013	    -12.20665724	      1.17722834	      0.63549602	     -0.39634647	      8.32508171	      8.60159826	      3.76101048	    -22.59755390	     -6.63951245	     24.45510862	    -26.59720771	      0.36460504	      0.00000053	      0.00000000	     38.92762146	     -5.86308798	     -7.93372091	    -22.81632251	    -10.07089450	     14.78749740	    -29.51215473	      9.73385461	      0.00001990	      0.00000000
      0.47000000	     -8.11200254	     -6.26248109	    -11.79588813	      1.18634408	      0.63383495	     -0.39689205	      7.66721720	      8.23422013	      3.90621706	    -23.36203078	     -6.57411020	     24.49009992	    -27.12236032	      0.81497498	      0.00000018	      0.00000000	     38.11650358	     -5.79003818	     -7.52199821	    -21.93421462	    -10.54855379	     16.16011391	    -29.14650129	      9.91893523	      0.00001992	      0.00000000
